<?xml version="1.0" encoding="UTF-8" standalone="no"?>
<!DOCTYPE svg PUBLIC "-//W3C//DTD SVG 1.1//EN" "http://www.w3.org/Graphics/SVG/1.1/DTD/svg11.dtd">
<svg width="100%" height="100%" viewBox="0 0 64 64" version="1.1" xmlns="http://www.w3.org/2000/svg" xmlns:xlink="http://www.w3.org/1999/xlink" xml:space="preserve" xmlns:serif="http://www.serif.com/" style="fill-rule:evenodd;clip-rule:evenodd;stroke-linecap:round;">
    <path d="M64,12L64,52C64,58.623 58.623,64 52,64L12,64C5.377,64 0,58.623 0,52L0,12C0,5.377 5.377,0 12,0L52,0C58.623,0 64,5.377 64,12Z" style="fill:rgb(161,88,10);"/>
    <path d="M64,12L64,52C64,58.623 58.623,64 52,64L12,64C5.377,64 0,58.623 0,52L0,12C0,5.377 5.377,0 12,0L52,0C58.623,0 64,5.377 64,12Z" style="fill:rgb(149,71,33);"/>
    <g transform="matrix(1,0,0,0.5,0,2)">
        <rect x="13" y="4" width="6" height="25" style="fill:white;"/>
    </g>
    <g transform="matrix(1,0,0,0.9,16,0.4)">
        <rect x="13" y="4" width="6" height="25" style="fill:white;"/>
    </g>
    <g transform="matrix(1,0,0,0.5,32,2)">
        <rect x="13" y="4" width="6" height="25" style="fill:white;"/>
    </g>
    <path d="M12,33L20,33M28,33L36,33M44,33L52,33" style="fill-rule:nonzero;stroke:white;stroke-width:5px;"/>
    <circle cx="32" cy="48" r="6" style="fill:white;"/>
</svg>
